<?xml version="1.0" encoding="UTF-8"?>
<!DOCTYPE svg PUBLIC "-//W3C//DTD SVG 1.1//EN" "http://www.w3.org/Graphics/SVG/1.1/DTD/svg11.dtd">
<svg xmlns="http://www.w3.org/2000/svg" version="1.1" width="430px" height="117px" style="shape-rendering:geometricPrecision; text-rendering:geometricPrecision; image-rendering:optimizeQuality; fill-rule:evenodd; clip-rule:evenodd" xmlns:xlink="http://www.w3.org/1999/xlink">
<g><path style="opacity:1" fill="#000101" d="M -0.5,-0.5 C 142.833,-0.5 286.167,-0.5 429.5,-0.5C 429.5,38.5 429.5,77.5 429.5,116.5C 286.167,116.5 142.833,116.5 -0.5,116.5C -0.5,77.5 -0.5,38.5 -0.5,-0.5 Z"/></g>
<g><path style="opacity:1" fill="#fafcfd" d="M 59.5,14.5 C 57.2928,18.251 55.6261,22.251 54.5,26.5C 67.482,24.0026 79.8153,25.6693 91.5,31.5C 94.5023,34.1612 96.5023,37.4945 97.5,41.5C 97.8502,50.6332 94.5169,58.1332 87.5,64C 83.6756,67.0791 79.6756,69.9124 75.5,72.5C 75.1667,72.3333 74.8333,72.1667 74.5,72C 83.5895,64.3521 86.7562,54.8521 84,43.5C 81.1366,40.4847 77.6366,38.6513 73.5,38C 66.3549,36.9983 59.3549,37.4983 52.5,39.5C 49.6402,63.0995 57.3069,82.4328 75.5,97.5C 75.1667,97.5 74.8333,97.5 74.5,97.5C 58.0838,92.9198 46.9171,82.5864 41,66.5C 38.4774,59.3479 36.644,52.0146 35.5,44.5C 26.6305,48.418 19.6305,54.418 14.5,62.5C 14.1805,57.6367 14.5139,52.97 15.5,48.5C 21.7409,41.7082 29.0743,36.3749 37.5,32.5C 39.6483,26.8701 42.3149,21.5368 45.5,16.5C 49.99,14.8887 54.6566,14.222 59.5,14.5 Z"/></g>
<g><path style="opacity:1" fill="#1092d6" d="M 59.5,14.5 C 72.757,15.4598 83.4237,21.1265 91.5,31.5C 79.8153,25.6693 67.482,24.0026 54.5,26.5C 55.6261,22.251 57.2928,18.251 59.5,14.5 Z"/></g>
<g><path style="opacity:1" fill="#8cd4f3" d="M 45.5,16.5 C 42.3149,21.5368 39.6483,26.8701 37.5,32.5C 29.0743,36.3749 21.7409,41.7082 15.5,48.5C 19.6138,32.3842 29.6138,21.7175 45.5,16.5 Z"/></g>
<g><path style="opacity:1" fill="#fafafa" d="M 112.5,23.5 C 126.504,23.3334 140.504,23.5001 154.5,24C 166.987,25.8121 171.154,32.6454 167,44.5C 164.441,47.5314 161.274,49.6981 157.5,51C 146.555,52.3791 135.555,52.8791 124.5,52.5C 124.5,58.1667 124.5,63.8333 124.5,69.5C 120.5,69.5 116.5,69.5 112.5,69.5C 112.5,54.1667 112.5,38.8333 112.5,23.5 Z"/></g>
<g><path style="opacity:1" fill="#f8f8f8" d="M 180.5,23.5 C 184.833,23.5 189.167,23.5 193.5,23.5C 193.333,34.505 193.5,45.505 194,56.5C 194.374,57.4162 194.874,58.2496 195.5,59C 203.491,60.9567 211.491,60.9567 219.5,59C 220.126,58.2496 220.626,57.4162 221,56.5C 221.5,45.505 221.667,34.505 221.5,23.5C 225.833,23.5 230.167,23.5 234.5,23.5C 234.667,34.8382 234.5,46.1716 234,57.5C 232.402,64.7281 227.902,68.8948 220.5,70C 211.833,70.6667 203.167,70.6667 194.5,70C 189.2,68.7714 185.033,65.9381 182,61.5C 180.559,48.908 180.059,36.2414 180.5,23.5 Z"/></g>
<g><path style="opacity:1" fill="#f9f9f9" d="M 245.5,23.5 C 266.167,23.5 286.833,23.5 307.5,23.5C 307.5,26.8333 307.5,30.1667 307.5,33.5C 299.5,33.5 291.5,33.5 283.5,33.5C 283.5,45.5 283.5,57.5 283.5,69.5C 279.167,69.5 274.833,69.5 270.5,69.5C 270.5,57.5 270.5,45.5 270.5,33.5C 262.167,33.5 253.833,33.5 245.5,33.5C 245.5,30.1667 245.5,26.8333 245.5,23.5 Z"/></g>
<g><path style="opacity:1" fill="#f8f8f8" d="M 413.5,68.5 C 408.695,69.4872 403.695,69.8205 398.5,69.5C 390.854,62.1881 383.187,54.8548 375.5,47.5C 372.429,49.8977 369.095,51.8977 365.5,53.5C 364.505,58.7921 364.172,64.1254 364.5,69.5C 360.167,69.5 355.833,69.5 351.5,69.5C 351.5,54.1667 351.5,38.8333 351.5,23.5C 355.833,23.5 360.167,23.5 364.5,23.5C 364.334,29.5092 364.501,35.5092 365,41.5C 374.416,35.5412 383.916,29.7079 393.5,24C 400.167,23.3333 406.833,23.3333 413.5,24C 404.123,29.3487 395.123,35.182 386.5,41.5C 395.215,50.8814 404.215,59.8814 413.5,68.5 Z"/></g>
<g><path style="opacity:1" fill="#909090" d="M 112.5,23.5 C 112.5,38.8333 112.5,54.1667 112.5,69.5C 116.5,69.5 120.5,69.5 124.5,69.5C 120.366,70.4849 116.032,70.8182 111.5,70.5C 111.17,54.6578 111.504,38.9911 112.5,23.5 Z"/></g>
<g><path style="opacity:1" fill="#0a8ccd" d="M 330.5,28.5 C 328.589,27.925 326.922,26.925 325.5,25.5C 325.5,25.1667 325.5,24.8333 325.5,24.5C 328.962,23.5184 332.629,23.185 336.5,23.5C 336.5,25.1667 336.5,26.8333 336.5,28.5C 334.5,28.5 332.5,28.5 330.5,28.5 Z"/></g>
<g><path style="opacity:1" fill="#b3b3b3" d="M 325.5,24.5 C 325.5,24.8333 325.5,25.1667 325.5,25.5C 324.504,39.9905 324.171,54.6572 324.5,69.5C 328.5,69.5 332.5,69.5 336.5,69.5C 332.366,70.4849 328.032,70.8182 323.5,70.5C 323.333,54.8298 323.5,39.1631 324,23.5C 324.383,24.056 324.883,24.3893 325.5,24.5 Z"/></g>
<g><path style="opacity:1" fill="#fefefe" d="M 325.5,25.5 C 326.922,26.925 328.589,27.925 330.5,28.5C 332.102,30.0739 334.102,30.7406 336.5,30.5C 336.5,43.5 336.5,56.5 336.5,69.5C 332.5,69.5 328.5,69.5 324.5,69.5C 324.171,54.6572 324.504,39.9905 325.5,25.5 Z"/></g>
<g><path style="opacity:1" fill="#010101" d="M 124.5,33.5 C 134.566,33.1048 144.566,33.6048 154.5,35C 156.14,37.7758 155.473,39.7758 152.5,41C 143.173,41.4998 133.839,41.6665 124.5,41.5C 124.5,38.8333 124.5,36.1667 124.5,33.5 Z"/></g>
<g><path style="opacity:1" fill="#0894d8" d="M 97.5,41.5 C 105.025,62.4391 100.025,79.9391 82.5,94C 80.1136,95.1932 77.7802,96.3599 75.5,97.5C 57.3069,82.4328 49.6402,63.0995 52.5,39.5C 59.3549,37.4983 66.3549,36.9983 73.5,38C 77.6366,38.6513 81.1366,40.4847 84,43.5C 86.7562,54.8521 83.5895,64.3521 74.5,72C 74.8333,72.1667 75.1667,72.3333 75.5,72.5C 79.6756,69.9124 83.6756,67.0791 87.5,64C 94.5169,58.1332 97.8502,50.6332 97.5,41.5 Z"/></g>
<g><path style="opacity:1" fill="#8cd6f6" d="M 74.5,97.5 C 52.1628,105.891 33.9962,100.224 20,80.5C 16.7121,74.9294 14.8788,68.9294 14.5,62.5C 19.6305,54.418 26.6305,48.418 35.5,44.5C 36.644,52.0146 38.4774,59.3479 41,66.5C 46.9171,82.5864 58.0838,92.9198 74.5,97.5 Z"/></g>
<g><path style="opacity:1" fill="#6b6b6b" d="M 413.5,68.5 C 414.043,68.56 414.376,68.8933 414.5,69.5C 409.014,70.8147 403.68,70.8147 398.5,69.5C 403.695,69.8205 408.695,69.4872 413.5,68.5 Z"/></g>
<g><path style="opacity:1" fill="#0094d8" d="M 193.5,82.5 C 200.486,82.331 202.153,85.1643 198.5,91C 191.416,91.475 189.749,88.6417 193.5,82.5 Z"/></g>
<g><path style="opacity:1" fill="#009ae1" d="M 202.5,82.5 C 204.344,84.2789 205.01,86.6122 204.5,89.5C 205.675,89.281 206.675,89.6143 207.5,90.5C 205.955,91.4519 204.288,91.7852 202.5,91.5C 202.5,88.5 202.5,85.5 202.5,82.5 Z"/></g>
<g><path style="opacity:1" fill="#009ae2" d="M 230.5,82.5 C 231.765,83.5145 232.431,85.0145 232.5,87C 232.167,88.5 231.833,90 231.5,91.5C 230.516,88.5719 230.183,85.5719 230.5,82.5 Z"/></g>
<g><path style="opacity:1" fill="#0082be" d="M 242.5,82.5 C 245.642,82.7993 247.809,84.4659 249,87.5C 249.494,85.8659 249.66,84.1992 249.5,82.5C 250.5,82.5 251.5,82.5 252.5,82.5C 252.5,85.5 252.5,88.5 252.5,91.5C 249.358,91.2007 247.191,89.5341 246,86.5C 245.506,88.1341 245.34,89.8008 245.5,91.5C 244.5,91.5 243.5,91.5 242.5,91.5C 242.5,88.5 242.5,85.5 242.5,82.5 Z"/></g>
<g><path style="opacity:1" fill="#009ae2" d="M 307.5,82.5 C 308.765,83.5145 309.431,85.0145 309.5,87C 309.167,88.5 308.833,90 308.5,91.5C 307.516,88.5719 307.183,85.5719 307.5,82.5 Z"/></g>
<g><path style="opacity:1" fill="#009ae2" d="M 381.5,82.5 C 382.765,83.5145 383.431,85.0145 383.5,87C 383.167,88.5 382.833,90 382.5,91.5C 381.516,88.5719 381.183,85.5719 381.5,82.5 Z"/></g>
<g><path style="opacity:1" fill="#009ae2" d="M 411.5,82.5 C 412.765,83.5145 413.431,85.0145 413.5,87C 413.167,88.5 412.833,90 412.5,91.5C 411.516,88.5719 411.183,85.5719 411.5,82.5 Z"/></g>
<g><path style="opacity:1" fill="#0088c8" d="M 112.5,82.5 C 115.365,82.0548 117.865,82.7215 120,84.5C 120.71,83.0267 121.876,82.3601 123.5,82.5C 123.5,84.8333 123.5,87.1667 123.5,89.5C 124.5,89.5 125.5,89.5 126.5,89.5C 126.5,87.1667 126.5,84.8333 126.5,82.5C 127.5,82.5 128.5,82.5 129.5,82.5C 131.165,88.9857 128.832,91.819 122.5,91C 121.107,89.8289 120.273,88.3289 120,86.5C 118.89,88.0368 117.39,88.7035 115.5,88.5C 115.5,89.5 115.5,90.5 115.5,91.5C 114.5,91.5 113.5,91.5 112.5,91.5C 112.5,88.5 112.5,85.5 112.5,82.5 Z"/></g>
<g><path style="opacity:1" fill="#0099e0" d="M 146.5,82.5 C 148.604,82.2011 150.604,82.5344 152.5,83.5C 151.078,85.9647 150.078,88.6313 149.5,91.5C 148.745,88.3484 147.745,85.3484 146.5,82.5 Z"/></g>
<g><path style="opacity:1" fill="#0099e0" d="M 157.5,82.5 C 159.604,82.2011 161.604,82.5344 163.5,83.5C 162.078,85.9647 161.078,88.6313 160.5,91.5C 159.745,88.3484 158.745,85.3484 157.5,82.5 Z"/></g>
<g><path style="opacity:1" fill="#071117" d="M 194.5,84.5 C 198.161,84.3501 199.161,85.8501 197.5,89C 193.707,89.4866 192.707,87.9866 194.5,84.5 Z"/></g>
<g><path style="opacity:1" fill="#0089c8" d="M 238.5,82.5 C 239.5,82.5 240.5,82.5 241.5,82.5C 241.5,85.5 241.5,88.5 241.5,91.5C 240.5,91.5 239.5,91.5 238.5,91.5C 238.5,88.5 238.5,85.5 238.5,82.5 Z"/></g>
<g><path style="opacity:1" fill="#0085c2" d="M 329.5,82.5 C 331.124,82.3601 332.29,83.0267 333,84.5C 334.133,82.7888 335.633,82.2888 337.5,83C 333.5,85.6667 333.5,88.3333 337.5,91C 335.633,91.7112 334.133,91.2112 333,89.5C 332.29,90.9733 331.124,91.6399 329.5,91.5C 329.5,88.5 329.5,85.5 329.5,82.5 Z"/></g>
<g><path style="opacity:1" fill="#0094d8" d="M 340.5,82.5 C 347.486,82.331 349.153,85.1643 345.5,91C 338.416,91.475 336.749,88.6417 340.5,82.5 Z"/></g>
<g><path style="opacity:1" fill="#061117" d="M 341.5,84.5 C 345.161,84.3501 346.161,85.8501 344.5,89C 340.707,89.4866 339.707,87.9866 341.5,84.5 Z"/></g>
<g><path style="opacity:1" fill="#008dce" d="M 360.5,82.5 C 361.5,82.5 362.5,82.5 363.5,82.5C 363.5,84.8333 363.5,87.1667 363.5,89.5C 364.5,89.5 365.5,89.5 366.5,89.5C 366.192,87.076 366.526,84.7427 367.5,82.5C 370.485,89.9508 368.318,92.6175 361,90.5C 360.503,87.854 360.336,85.1873 360.5,82.5 Z"/></g>
<g><path style="opacity:1" fill="#0087c6" d="M 370.5,82.5 C 373.292,82.4521 375.125,83.7854 376,86.5C 376.49,85.2068 376.657,83.8734 376.5,82.5C 377.5,82.5 378.5,82.5 379.5,82.5C 379.5,85.5 379.5,88.5 379.5,91.5C 376.708,91.5479 374.875,90.2146 374,87.5C 373.51,88.7932 373.343,90.1266 373.5,91.5C 372.5,91.5 371.5,91.5 370.5,91.5C 370.5,88.5 370.5,85.5 370.5,82.5 Z"/></g>
<g><path style="opacity:1" fill="#051720" d="M 115.5,84.5 C 117.337,84.6395 117.67,85.3061 116.5,86.5C 115.702,86.0431 115.369,85.3764 115.5,84.5 Z"/></g>
<g><path style="opacity:1" fill="#0088c8" d="M 210.5,82.5 C 217.602,82.0733 219.602,84.9066 216.5,91C 208.749,92.0913 206.749,89.258 210.5,82.5 Z"/></g>
<g><path style="opacity:1" fill="#010406" d="M 212.5,84.5 C 215.389,84.999 216.056,86.499 214.5,89C 213.552,89.4828 212.552,89.6495 211.5,89.5C 211.366,87.7085 211.699,86.0418 212.5,84.5 Z"/></g>
<g><path style="opacity:1" fill="#0088c7" d="M 253.5,82.5 C 255.604,82.2011 257.604,82.5344 259.5,83.5C 258.624,84.2508 257.624,84.7508 256.5,85C 257.766,85.3095 258.933,85.8095 260,86.5C 262.195,82.1279 265.195,81.4612 269,84.5C 270.167,90 268,92.1667 262.5,91C 261.299,90.0975 260.465,88.9308 260,87.5C 258.989,88.3366 257.822,88.67 256.5,88.5C 256.5,89.5 256.5,90.5 256.5,91.5C 255.5,91.5 254.5,91.5 253.5,91.5C 253.5,88.5 253.5,85.5 253.5,82.5 Z"/></g>
<g><path style="opacity:1" fill="#061017" d="M 263.5,84.5 C 267.161,84.3501 268.161,85.8501 266.5,89C 262.707,89.4866 261.707,87.9866 263.5,84.5 Z"/></g>
<g><path style="opacity:1" fill="#0087c5" d="M 171.5,82.5 C 172.5,82.5 173.5,82.5 174.5,82.5C 174.459,86.2434 175.126,86.4101 176.5,83C 177.635,82.2506 178.635,82.4173 179.5,83.5C 178.687,84.8139 177.687,85.9805 176.5,87C 177.667,88.1667 178.833,89.3333 180,90.5C 180.497,87.854 180.664,85.1873 180.5,82.5C 183.642,82.7993 185.809,84.4659 187,87.5C 187.202,85.7444 187.702,84.0777 188.5,82.5C 189.484,85.4281 189.817,88.4281 189.5,91.5C 187.09,91.0791 185.257,89.7458 184,87.5C 183.51,88.7932 183.343,90.1266 183.5,91.5C 180.028,92.0371 177.195,91.0371 175,88.5C 174.517,89.448 174.351,90.448 174.5,91.5C 173.5,91.5 172.5,91.5 171.5,91.5C 171.5,88.5 171.5,85.5 171.5,82.5 Z"/></g>
<g><path style="opacity:1" fill="#0088c7" d="M 271.5,82.5 C 276.894,81.5545 278.561,83.5545 276.5,88.5C 276.808,89.3081 277.308,89.9747 278,90.5C 279.079,87.9373 279.579,85.2706 279.5,82.5C 282.766,82.4326 284.266,84.0992 284,87.5C 284.154,84.4754 285.654,82.8087 288.5,82.5C 288.933,85.1656 289.433,87.8323 290,90.5C 293,79.8333 296,79.8333 299,90.5C 304.349,89.965 304.683,88.6316 300,86.5C 299.316,85.2161 299.483,84.0495 300.5,83C 302.259,82.2025 303.926,82.3691 305.5,83.5C 304.624,84.2508 303.624,84.7508 302.5,85C 305.473,86.2242 306.14,88.2242 304.5,91C 298.477,90.4933 292.477,90.66 286.5,91.5C 286.167,87.5 285.833,87.5 285.5,91.5C 284.5,91.5 283.5,91.5 282.5,91.5C 282.167,86.1667 281.833,86.1667 281.5,91.5C 279.473,91.6621 277.473,91.4955 275.5,91C 274.874,90.2496 274.374,89.4162 274,88.5C 273.751,89.624 273.251,90.624 272.5,91.5C 271.516,88.5719 271.183,85.5719 271.5,82.5 Z"/></g>
<g><path style="opacity:1" fill="#000306" d="M 273.5,84.5 C 275.337,84.6395 275.67,85.3061 274.5,86.5C 273.702,86.0431 273.369,85.3764 273.5,84.5 Z"/></g>
<g><path style="opacity:1" fill="#008fd1" d="M 131.5,82.5 C 137.261,82.7088 137.594,83.5422 132.5,85C 135.959,85.9162 136.959,87.9162 135.5,91C 133.741,91.7975 132.074,91.6309 130.5,90.5C 131.729,89.7189 133.062,89.2189 134.5,89C 130.864,87.899 129.864,85.7323 131.5,82.5 Z"/></g>
<g><path style="opacity:1" fill="#0187c6" d="M 139.5,82.5 C 140.978,82.238 142.311,82.5713 143.5,83.5C 144.407,86.0567 145.407,88.5567 146.5,91C 143.807,90.4981 141.14,90.6648 138.5,91.5C 138.167,91 137.833,90.5 137.5,90C 138.479,87.5667 139.145,85.0667 139.5,82.5 Z"/></g>
<g><path style="opacity:1" fill="#008ed0" d="M 221.5,82.5 C 223.977,82.0508 225.977,82.7175 227.5,84.5C 225.979,84.8797 224.313,85.0464 222.5,85C 220.833,88.3333 221.833,89.6667 225.5,89C 224.692,88.6924 224.025,88.1924 223.5,87.5C 225.045,86.5481 226.712,86.2148 228.5,86.5C 228.178,90.9757 225.844,92.4757 221.5,91C 218.899,88.1705 218.899,85.3371 221.5,82.5 Z"/></g>
<g><path style="opacity:1" fill="#0288c7" d="M 317.5,82.5 C 321.161,82.3501 322.161,83.8501 320.5,87C 321.448,87.4828 322.448,87.6495 323.5,87.5C 323.33,88.8221 323.663,89.9887 324.5,91C 321.672,90.9052 318.672,91.0719 315.5,91.5C 315.7,88.3704 316.366,85.3704 317.5,82.5 Z"/></g>
<g><path style="opacity:1" fill="#0087c6" d="M 349.5,82.5 C 352.766,82.4326 354.266,84.0992 354,87.5C 354.154,84.4754 355.654,82.8087 358.5,82.5C 359.159,85.4552 359.492,88.4552 359.5,91.5C 358.5,91.5 357.5,91.5 356.5,91.5C 356.404,87.6893 355.738,87.6893 354.5,91.5C 353.029,90.6195 352.196,89.2861 352,87.5C 351.51,88.7932 351.343,90.1266 351.5,91.5C 350.5,91.5 349.5,91.5 348.5,91.5C 348.963,88.5176 349.296,85.5176 349.5,82.5 Z"/></g>
<g><path style="opacity:1" fill="#0084c2" d="M 385.5,82.5 C 386.5,82.5 387.5,82.5 388.5,82.5C 388.459,86.2434 389.126,86.4101 390.5,83C 391.5,82.3333 392.5,82.3333 393.5,83C 392.743,84.5122 391.743,85.8455 390.5,87C 391.618,88.0736 392.618,89.2402 393.5,90.5C 396.841,79.8992 400.008,79.8992 403,90.5C 408.349,89.965 408.683,88.6316 404,86.5C 403.333,85.5 403.333,84.5 404,83.5C 405.814,82.2404 407.647,82.2404 409.5,83.5C 408.624,84.2508 407.624,84.7508 406.5,85C 409.218,86.4152 409.885,88.4152 408.5,91C 403.459,90.9065 398.459,91.0732 393.5,91.5C 391.076,91.8516 389.576,90.8516 389,88.5C 388.517,89.448 388.351,90.448 388.5,91.5C 387.5,91.5 386.5,91.5 385.5,91.5C 385.5,88.5 385.5,85.5 385.5,82.5 Z"/></g>
<g><path style="opacity:1" fill="#0087c6" d="M 164.5,82.5 C 166.604,82.2011 168.604,82.5344 170.5,83.5C 166.689,84.7376 166.689,85.4042 170.5,85.5C 170.5,86.5 170.5,87.5 170.5,88.5C 166.689,88.5958 166.689,89.2624 170.5,90.5C 168.604,91.4656 166.604,91.7989 164.5,91.5C 164.5,88.5 164.5,85.5 164.5,82.5 Z"/></g>
</svg>
